<?xml version="1.0" encoding="UTF-8"?>
<svg xmlns="http://www.w3.org/2000/svg" viewBox="0 0 400 120" width="400" height="120">
  <defs>
    <linearGradient id="grad1" x1="0%" y1="0%" x2="100%" y2="0%">
      <stop offset="0%" style="stop-color:#3385ff;stop-opacity:1" />
      <stop offset="100%" style="stop-color:#8533ff;stop-opacity:1" />
    </linearGradient>
  </defs>
  <!-- Speech bubble -->
  <path d="M40,20 h60 a20,20 0 0 1 20,20 v30 a20,20 0 0 1 -20,20 h-30 l-15,15 v-15 h-15 a20,20 0 0 1 -20,-20 v-30 a20,20 0 0 1 20,-20z"
        fill="url(#grad1)" />
  <!-- Network nodes -->
  <circle cx="60" cy="45" r="6" fill="white"/>
  <circle cx="90" cy="45" r="6" fill="white"/>
  <circle cx="75" cy="65" r="6" fill="white"/>
  <line x1="60" y1="45" x2="90" y2="45" stroke="white" stroke-width="3"/>
  <line x1="60" y1="45" x2="75" y2="65" stroke="white" stroke-width="3"/>
  <line x1="90" y1="45" x2="75" y2="65" stroke="white" stroke-width="3"/>
  <!-- Wordmark -->
  <text x="130" y="75" font-family="Arial, Helvetica, sans-serif" font-size="48" fill="url(#grad1)" font-weight="600">
    SIAM
  </text>
</svg>
