<svg width="35" height="35" viewBox="0 0 35 35" fill="none" xmlns="http://www.w3.org/2000/svg">
<g clip-path="url(#clip0_374_6072)">
<path d="M0 0H16.875V16.8499H0V0Z" fill="black"/>
<path d="M18.125 0H35V16.8499H18.125V0ZM0 18.1501H16.875V35H0V18.1501Z" fill="#54697B"/>
<path d="M18.125 18.1501H35V34.9982H18.125V18.1501Z" fill="black"/>
<path d="M5.53756 10.7811L3.74996 15.1248H2.89969L8.44951 1.47613L13.9806 15.126H13.1245L11.3498 10.7502H5.53756V10.7811ZM8.44951 3.61261L5.84962 9.99983H11.0307L8.44951 3.61261ZM12.7493 22.1876H12.7184L8.4308 32.7496L4.1561 22.1876H4.12454L2.02488 32.337H1.25L3.91241 19.6619L8.43139 30.8235L12.9691 19.6619L15.6251 32.337H14.8741L12.7493 22.1876ZM24.1616 27.9939L22.3927 32.3691H21.5249L27.0765 18.6877L32.6058 32.337H31.7497L29.9744 27.9624H24.1622L24.1616 27.9939ZM27.0747 20.8248L24.4807 27.2062H29.6617L27.0747 20.8248ZM32.8559 8.42494C32.8534 7.00535 32.371 5.62833 31.4871 4.5175C30.6032 3.40667 29.3697 2.62729 27.9869 2.30595L25.712 0.587297V2.20017C24.2325 2.36404 22.8601 3.05028 21.8414 4.13552C20.8227 5.22076 20.2245 6.63381 20.1544 8.12062C20.0844 9.60743 20.547 11.0705 21.4591 12.2467C22.3712 13.423 23.6731 14.2352 25.1305 14.5375L27.4055 16.2497V14.6439C28.9117 14.4401 30.2933 13.6981 31.295 12.555C32.2968 11.4119 32.8516 9.94487 32.8559 8.42494ZM27.4061 13.8561V11.9809L25.0808 13.748C23.8697 13.4132 22.8099 12.6732 22.0783 11.6515C21.3468 10.6298 20.9876 9.3882 21.0607 8.13373C21.1339 6.87926 21.6349 5.68779 22.4803 4.75805C23.3257 3.82832 24.4642 3.21653 25.7061 3.02473V4.89999L28.0436 3.12524C29.2589 3.45791 30.3229 4.19829 31.0572 5.22223C31.7915 6.24617 32.1515 7.49144 32.0768 8.74924C32.002 10.0071 31.4972 11.2009 30.6468 12.1307C29.7964 13.0605 28.6522 13.6697 27.4061 13.8561Z" fill="white"/>
<path d="M26.5623 10.2751C27.5841 10.2751 28.4124 9.44674 28.4124 8.42494C28.4124 7.40314 27.5841 6.57481 26.5623 6.57481C25.5405 6.57481 24.7122 7.40314 24.7122 8.42494C24.7122 9.44674 25.5405 10.2751 26.5623 10.2751Z" fill="white"/>
</g>
<defs>
<clipPath id="clip0_374_6072">
<rect width="35" height="35" fill="white"/>
</clipPath>
</defs>
</svg>
